<svg width="120" height="32" viewBox="0 0 120 32" fill="none" xmlns="http://www.w3.org/2000/svg">
<path fill-rule="evenodd" clip-rule="evenodd" d="M3.30533 17.5562V24.1247H0V8.2509H10.9867V11.2258H3.30533V14.5814H10.8238V17.5562H3.30533ZM15.5681 24.1247V8.2509H12.2628V24.1247H15.5681ZM31.3552 8.2509V24.1247H28.1663L20.7642 13.7722V24.1247H17.4589V8.2509H20.8573L28.0499 18.2226V8.2509H31.3552ZM47.8247 16.1997C47.8247 20.9833 44.4495 24.1247 39.5846 24.1247H33.4628V8.2509H39.5846C44.4495 8.2509 47.8247 11.4161 47.8247 16.1997ZM36.7681 21.1499H39.5846C42.6572 21.1499 44.4495 18.889 44.4495 16.1997C44.4495 13.3914 42.7736 11.2258 39.5846 11.2258H36.7681V21.1499Z" fill="#2A333D"/>
</svg>
